HIERARCHY
ROOT Hips
{
	OFFSET 0.00000 0.00000 0.00000
	CHANNELS 6 Xposition Yposition Zposition Zrotation Yrotation Xrotation 
	JOINT LHipJoint
	{
		OFFSET 0 0 0
		CHANNELS 3 Zrotation Yrotation Xrotation
		JOINT LeftHip
		{
			OFFSET 1.64577 -1.42384 0.94276
			CHANNELS 3 Zrotation Yrotation Xrotation
			JOINT LeftKnee
			{
				OFFSET 2.11538 -5.81197 0.00000
				CHANNELS 3 Zrotation Yrotation Xrotation
				JOINT LeftAnkle
				{
					OFFSET 2.36541 -6.49893 0.00000
					CHANNELS 3 Zrotation Yrotation Xrotation
					JOINT LeftToe
					{
						OFFSET 0.17759 -0.48793 1.73865
						CHANNELS 3 Zrotation Yrotation Xrotation
						End Site
						{
							OFFSET 0.00000 -0.00000 0.91205
						}
					}
				}
			}
		}
	}
	JOINT RHipJoint
	{
		OFFSET 0 0 0
		CHANNELS 3 Zrotation Yrotation Xrotation
		JOINT RightHip
		{
			OFFSET -1.43750 -1.42384 0.94276
			CHANNELS 3 Zrotation Yrotation Xrotation
			JOINT RightKnee
			{
				OFFSET -2.10480 -5.78291 0.00000
				CHANNELS 3 Zrotation Yrotation Xrotation
				JOINT RightAnkle
				{
					OFFSET -2.34880 -6.45329 0.00000
					CHANNELS 3 Zrotation Yrotation Xrotation
					JOINT RightToe
					{
						OFFSET -0.22842 -0.62757 1.80469
						CHANNELS 3 Zrotation Yrotation Xrotation
						End Site
						{
							OFFSET -0.00000 -0.00000 0.95886
						}
					}
				}
			}
		}
	}
	JOINT lowerback
	{
		OFFSET 0 0 0
		CHANNELS 3 Zrotation Yrotation Xrotation
		JOINT Chest
		{
			OFFSET 0.06217 1.93758 -0.49272
			CHANNELS 3 Zrotation Yrotation Xrotation
			JOINT Chest2
			{
				OFFSET -0.03114 2.03621 -0.05830
				CHANNELS 3 Zrotation Yrotation Xrotation
				JOINT lowerneck
				{
					OFFSET 0 0 0
					CHANNELS 3 Zrotation Yrotation Xrotation
					JOINT Neck
					{
						OFFSET 0.04421 1.41010 0.26562
						CHANNELS 3 Zrotation Yrotation Xrotation
						JOINT Head
						{
							OFFSET -0.13407 1.43847 0.06181
							CHANNELS 3 Zrotation Yrotation Xrotation
							End Site
							{
								OFFSET -0.04980 1.45844 -0.00689
							}
						}
					}
				}
				JOINT LeftCollar
				{
					OFFSET 0 0 0
					CHANNELS 3 Zrotation Yrotation Xrotation
					JOINT LeftShoulder
					{
						OFFSET 2.18382 1.47753 -0.35694
CHANNELS 3 Zrotation Xrotation Yrotation
						JOINT LeftElbow
						{
OFFSET 0 -5.054600 0.000000
CHANNELS 3 Zrotation Xrotation Yrotation
							JOINT LeftWrist
							{
OFFSET 0 -3.390130 0.000000
CHANNELS 3 Zrotation Xrotation Yrotation
								JOINT lhand
								{
									OFFSET 0 0 0
CHANNELS 3 Zrotation Xrotation Yrotation
									JOINT LFingers
									{
OFFSET 0 -0.572420 -0.000000
CHANNELS 3 Zrotation Xrotation Yrotation
										End Site
										{
OFFSET 0 -0.461500 -0.000000
										}
									}
								}
								JOINT LThumb
								{
OFFSET 0 0.000000 0.000000
CHANNELS 3 Zrotation Xrotation Yrotation
									End Site
									{
OFFSET 0 -0.468550 0.468550
									}
								}
							}
						}
					}
				}
				JOINT RightCollar
				{
					OFFSET 0 0 0
					CHANNELS 3 Zrotation Yrotation Xrotation
					JOINT RightShoulder
					{
						OFFSET -2.06033 1.72839 -0.47437
CHANNELS 3 Zrotation Xrotation Yrotation
						JOINT RightElbow
						{
OFFSET 0 -5.070100 0.000000
CHANNELS 3 Zrotation Xrotation Yrotation
							JOINT RightWrist
							{
OFFSET 0 -3.149570 -0.000000
CHANNELS 3 Zrotation Xrotation Yrotation
								JOINT rhand
								{
									OFFSET 0 0 0
CHANNELS 3 Zrotation Xrotation Yrotation
									JOINT RFingers
									{
OFFSET 0 -0.718190 -0.000000
CHANNELS 3 Zrotation Xrotation Yrotation
										End Site
										{
OFFSET 0 -0.579020 -0.000000
										}
									}
								}
								JOINT RThumb
								{
OFFSET 0 0.000000 0.000000
CHANNELS 3 Zrotation Xrotation Yrotation
									End Site
									{
OFFSET 0 -0.587860 0.587860
									}
								}
							}
						}
					}
				}
			}
		}
	}
}
MOTION
Frames: 6
Frame Time: 0.008333333333333333
8.418628 15.432306 4.061534 -179.673277 8.928417 175.689526 0.000000 0.000000 0.000000 -19.367571 -17.827810 8.769730 1.041928 6.491718 18.218043 -0.046447 22.112526 -30.873593 0.132179 -2.343508 -6.455870 0.000000 0.000000 0.000000 22.321758 16.132803 4.984587 -1.345990 -7.345034 20.741638 -1.071567 -20.631446 -35.797384 -0.736993 5.484419 -15.295601 -0.770626 1.770498 8.098892 -1.333301 2.723801 4.822749 -1.142561 1.545068 0.480970 11.527015 9.092034 -7.812436 -8.937244 11.512240 3.150446 -3.845698 5.586152 3.382987 0.000000 0.000000 0.000000 41.465791 -18.553638 -1.611028 141.590959 -47.097845 102.735163 39.032229 3.500786 -0.297144 0.000000 0.000000 0.000000 -7.125000 0.000000 0.000000 9.825990 30.278345 3.584466 0.000000 0.000000 0.000000 -34.229583 -25.515591 9.044306 -136.230558 -50.148551 -98.709479 -37.722991 -22.197708 -14.062219 0.000000 0.000000 0.000000 7.125000 0.000000 0.000000 -6.865933 12.499967 -5.258479
8.412309 15.434150 4.047851 -179.741454 9.012017 175.783162 0.000000 0.000000 0.000000 -19.471589 -17.827050 8.755567 1.036567 6.475409 18.170386 -0.057704 22.210082 -30.933826 0.136916 -2.384714 -6.570197 0.000000 0.000000 0.000000 22.227464 16.256111 4.927607 -1.353650 -7.365141 20.801730 -1.047564 -20.715478 -35.756665 -0.773185 5.614492 -15.669852 -0.860249 1.780266 8.148448 -1.334100 2.731142 4.822625 -1.096016 1.547475 0.450010 11.385820 9.029820 -7.857573 -8.858371 11.437575 3.250698 -3.803444 5.548485 3.400182 0.000000 0.000000 0.000000 43.686972 -17.393400 3.838745 140.951775 -47.495696 102.265620 40.445332 2.308603 1.086380 0.000000 0.000000 0.000000 -7.125000 0.000000 0.000000 10.735475 28.484705 4.387432 0.000000 0.000000 0.000000 -37.475035 -25.149005 3.254313 -134.742443 -50.893514 -97.561354 -39.143889 -22.945138 -14.045540 0.000000 0.000000 0.000000 7.125000 0.000000 0.000000 -7.799408 12.225823 -6.028379
8.405960 15.434242 4.032050 -179.839992 9.036582 175.834748 0.000000 0.000000 0.000000 -19.615176 -17.809982 8.764659 1.032114 6.461963 18.130949 -0.069888 22.276278 -30.944868 0.144277 -2.447624 -6.744349 0.000000 0.000000 0.000000 22.105997 16.319464 4.905987 -1.361909 -7.386568 20.865776 -1.029619 -20.803270 -35.753822 -0.810170 5.743910 -16.043126 -0.994250 1.772516 8.190592 -1.327627 2.711378 4.816690 -1.014957 1.535025 0.414345 11.252487 8.956777 -7.804836 -8.788080 11.358444 3.352168 -3.769328 5.510278 3.402765 0.000000 0.000000 0.000000 45.193522 -16.143265 8.488071 140.525732 -47.755265 101.950930 41.417680 1.341664 2.210040 0.000000 0.000000 0.000000 -7.125000 0.000000 0.000000 11.300383 26.985596 5.035182 0.000000 0.000000 0.000000 -40.247327 -24.479545 -1.646905 -133.345664 -51.552195 -96.472105 -39.593122 -22.892138 -13.669857 0.000000 0.000000 0.000000 7.125000 0.000000 0.000000 -8.157035 12.594512 -6.247225
8.400166 15.433402 4.015413 -179.921464 9.020580 175.846292 0.000000 0.000000 0.000000 -19.740440 -17.759853 8.796205 1.028663 6.451389 18.100008 -0.078300 22.294085 -30.912865 0.152328 -2.514635 -6.930162 0.000000 0.000000 0.000000 22.018147 16.368257 4.945432 -1.369873 -7.407195 20.927527 -1.034798 -20.853404 -35.835848 -0.825283 5.796234 -16.194274 -1.098963 1.761633 8.263327 -1.321888 2.688921 4.807100 -0.952138 1.522047 0.359585 11.192015 8.887197 -7.706562 -8.773636 11.285617 3.463331 -3.764208 5.475371 3.409283 0.000000 0.000000 0.000000 46.120520 -14.841531 12.293327 140.389036 -47.837761 101.849666 42.047868 0.963670 2.708661 0.000000 0.000000 0.000000 -7.125000 0.000000 0.000000 11.690015 26.297337 5.407627 0.000000 0.000000 0.000000 -42.523591 -23.503814 -5.686307 -132.239876 -52.050096 -95.603203 -39.205234 -22.423877 -13.417078 0.000000 0.000000 0.000000 7.125000 0.000000 0.000000 -7.946117 12.989234 -6.016642
8.395163 15.432400 3.998965 -179.956122 8.979495 175.835377 0.000000 0.000000 0.000000 -19.808130 -17.677352 8.843017 1.024351 6.438365 18.061807 -0.090460 22.289226 -30.823842 0.163173 -2.602347 -7.173483 0.000000 0.000000 0.000000 21.992401 16.413043 5.020887 -1.378361 -7.429309 20.993564 -1.051672 -20.886394 -35.962655 -0.827550 5.803861 -16.216458 -1.130861 1.746078 8.363958 -1.322025 2.665804 4.801676 -0.936950 1.510864 0.297173 11.225478 8.829196 -7.620375 -8.839398 11.225009 3.602288 -3.795331 5.444755 3.437444 0.000000 0.000000 0.000000 46.579395 -13.527885 15.280281 140.559947 -47.734549 101.976233 42.277321 1.301031 2.401393 0.000000 0.000000 0.000000 -7.125000 0.000000 0.000000 11.912362 26.688932 5.402355 0.000000 0.000000 0.000000 -44.287502 -22.294677 -8.861829 -131.478419 -52.381291 -95.001722 -38.331829 -21.976352 -13.611308 0.000000 0.000000 0.000000 7.125000 0.000000 0.000000 -7.340148 12.929348 -5.558367
8.391349 15.432200 3.983735 -179.955983 8.924291 175.816755 0.000000 0.000000 0.000000 -19.828396 -17.579918 8.900931 1.017754 6.418273 18.003052 -0.110763 22.291044 -30.688750 0.177410 -2.712739 -7.479882 0.000000 0.000000 0.000000 22.003930 16.452858 5.096481 -1.388496 -7.455458 21.072021 -1.085869 -20.861666 -36.120044 -0.814350 5.758464 -16.085253 -1.116872 1.724205 8.479481 -1.325459 2.638266 4.801933 -0.950937 1.498804 0.234562 11.324435 8.781521 -7.598624 -8.961779 11.172614 3.795059 -3.849130 5.415684 3.500231 0.000000 0.000000 0.000000 46.660395 -12.255107 17.520814 140.985492 -47.474794 102.290435 41.779433 2.229653 1.482635 0.000000 0.000000 0.000000 -7.125000 0.000000 0.000000 11.688571 27.920368 4.952425 0.000000 0.000000 0.000000 -45.553561 -20.941126 -11.156439 -131.049189 -52.563458 -94.661324 -37.314792 -21.858648 -14.416327 0.000000 0.000000 0.000000 7.125000 0.000000 0.000000 -6.542997 12.157188 -5.050677
